<svg version="1.0" xmlns="http://www.w3.org/2000/svg"
 width="300.000000pt" height="303.000000pt" viewBox="0 0 300.000000 303.000000"
 preserveAspectRatio="xMidYMid meet">
<metadata>
Created by potrace 1.10, written by Peter Selinger 2001-2011
</metadata>
<g transform="translate(0.000000,303.000000) scale(0.100000,-0.100000)"
fill="#0b5394" stroke="none">
<path d="M1340 3020 c-248 -23 -518 -129 -733 -291 -298 -224 -500 -545 -578
-919 -31 -151 -31 -439 0 -590 142 -682 708 -1180 1381 -1213 125 -6 322 9
423 32 578 136 1021 599 1137 1188 28 141 30 411 5 553 -109 617 -596 1112
-1205 1224 -101 19 -311 26 -430 16z m447 -39 c304 -62 570 -212 785 -440 189
-200 316 -445 375 -721 33 -151 37 -424 9 -565 -65 -333 -213 -608 -448 -830
-363 -344 -878 -480 -1359 -360 -559 140 -976 579 -1101 1159 -31 145 -31 436
0 582 67 312 195 548 416 770 245 245 531 383 886 428 84 10 338 -3 437 -23z"/>
<path d="M596 2220 c-3 -245 -8 -708 -11 -1030 -3 -322 -8 -633 -11 -692 l-6
-108 201 0 201 0 0 253 c0 138 2 297 5 352 3 64 1 89 -4 70 -8 -26 -9 -24 -10
23 l-1 53 60 -47 c33 -26 66 -54 72 -63 7 -9 -9 2 -37 25 -53 43 -75 58 -75
51 0 -7 248 -207 256 -207 3 0 0 8 -7 17 -13 16 -12 17 4 4 9 -8 15 -16 12
-19 -7 -7 25 -42 38 -42 5 0 3 8 -4 18 -11 14 -10 13 9 -2 24 -21 29 -31 10
-20 -7 4 -2 -5 11 -19 30 -33 52 -36 25 -4 l-19 22 22 -19 c13 -10 20 -22 18
-26 -4 -7 68 -69 310 -263 39 -31 76 -57 83 -57 19 0 756 80 758 83 3 5 92
692 89 695 -1 2 -47 -28 -101 -66 -323 -225 -607 -413 -618 -409 -19 8 -829
618 -842 635 -6 8 -42 17 -90 23 -182 20 -222 28 -267 48 -42 19 -47 25 -44
49 4 25 24 32 37 13 11 -16 132 -34 188 -27 31 3 80 8 107 11 28 3 68 10 90
15 77 17 123 20 127 9 3 -9 10 -9 28 0 l25 12 -25 -20 c-28 -23 -40 -26 -40
-10 0 5 -5 7 -11 3 -8 -5 -8 -9 1 -14 8 -5 0 -14 -23 -29 -37 -23 -52 -27 -42
-11 3 6 1 10 -5 10 -7 0 -10 -7 -6 -15 7 -18 -26 -37 -51 -29 -13 4 -14 3 -5
-4 8 -5 14 -13 15 -18 3 -13 12 -9 142 74 66 41 212 134 325 205 113 71 213
137 222 146 15 14 458 784 458 796 0 2 -137 3 -305 2 l-304 -2 -6 -50 c-5 -48
-45 -510 -45 -527 0 -4 -52 -42 -115 -84 -63 -42 -112 -81 -108 -87 3 -6 1 -7
-5 -3 -13 8 -124 -63 -117 -74 3 -4 -3 -14 -13 -21 -15 -13 -16 -12 -3 4 22
28 5 20 -74 -33 -41 -27 -76 -50 -78 -50 -2 0 -3 10 -1 23 2 12 10 195 19 407
8 212 17 410 19 440 l5 55 -228 0 -228 0 -7 -445z m207 298 c117 -115 140
-143 172 -210 l38 -77 -2 -137 c-1 -75 -4 -140 -6 -143 -2 -4 -5 -66 -6 -139
-2 -113 -5 -135 -21 -149 -29 -26 -21 -36 12 -13 35 25 84 72 122 119 l28 33
48 -44 c27 -23 77 -57 112 -74 l62 -31 -38 -24 c-30 -18 -56 -24 -109 -26 -38
-2 -135 -13 -215 -24 -168 -25 -263 -22 -333 9 -42 18 -67 45 -55 57 2 2 22
-2 43 -10 129 -46 268 17 314 141 23 60 30 146 9 109 -20 -36 -72 -86 -113
-108 -28 -14 -65 -22 -120 -25 -96 -5 -135 7 -135 41 0 23 5 25 66 30 139 11
234 92 241 204 7 103 -47 163 -213 234 l-89 38 -3 42 c-2 23 -1 52 2 64 5 20
8 20 93 -22 104 -50 135 -56 70 -12 -26 17 -72 58 -102 92 -54 60 -55 61 -55
124 0 60 1 63 24 63 16 0 62 -38 159 -132z m215 120 c7 -7 12 -39 12 -71 l0
-60 -26 49 c-14 27 -32 56 -40 65 -8 8 -14 19 -14 22 0 12 55 8 68 -5z m837
-11 c-27 -5 -84 -5 -125 0 l-75 8 115 5 c127 6 162 0 85 -13z m305 15 c0 -60
-337 -156 -472 -136 l-43 7 27 -29 c63 -68 112 -216 124 -373 l7 -88 -39 -72
c-22 -39 -41 -71 -44 -71 -4 0 -21 53 -40 118 -18 64 -53 156 -78 203 -40 79
-43 91 -35 130 l8 42 43 -51 c24 -28 57 -75 73 -104 16 -29 29 -47 29 -40 0
28 -63 173 -101 233 l-41 62 7 79 c4 43 8 78 9 78 0 0 30 -9 64 -20 99 -31
214 -22 297 23 32 17 205 25 205 9z m-1278 -16 c6 -8 8 -8 8 2 0 36 53 -7 86
-70 18 -36 24 -65 26 -120 l2 -73 6 70 c10 108 15 64 9 -87 -2 -59 -2 -60 -9
-23 -4 22 -8 34 -9 28 -2 -19 -21 -16 -28 5 -14 39 -163 201 -220 239 -35 24
-27 33 23 27 25 -3 44 -2 41 3 -3 5 9 9 26 10 18 0 35 -4 39 -11z m1215 -88
c-187 -331 -278 -488 -283 -488 -2 0 0 10 4 23 10 29 6 105 -7 140 -6 16 -11
41 -11 56 0 15 -4 31 -9 37 -5 5 -14 27 -21 49 -7 22 -23 58 -36 81 l-23 41
87 6 c83 7 144 18 187 36 55 24 86 33 92 27 3 -3 12 3 20 14 25 35 24 21 0
-22z m-1431 -105 c-7 -7 -26 7 -26 19 0 6 6 6 15 -2 9 -7 13 -15 11 -17z m935
-43 c5 0 9 -7 9 -16 0 -14 -2 -14 -15 0 -8 8 -14 25 -14 38 l2 23 4 -22 c2
-13 9 -23 14 -23z m-866 -168 c43 -11 123 -74 139 -107 44 -93 7 -187 -94
-238 -44 -22 -66 -27 -110 -25 l-55 3 -3 59 c-3 50 -1 58 12 53 9 -4 16 -2 16
3 0 5 9 11 20 15 25 8 60 65 60 100 0 33 -34 91 -61 105 -12 7 -19 21 -19 40
l0 30 38 -16 c20 -9 46 -19 57 -22z m843 -64 c1 12 5 22 10 22 7 0 37 -81 48
-130 3 -13 9 -29 13 -35 5 -5 11 -23 14 -40 11 -66 19 -90 29 -96 6 -4 0 -14
-15 -24 -14 -9 -32 -13 -38 -9 -7 4 -9 3 -5 -4 3 -6 -3 -16 -15 -22 -12 -7
-19 -8 -15 -2 3 6 2 12 -4 14 -10 3 -44 90 -66 171 -11 41 -10 49 2 54 8 3 14
19 14 38 0 18 3 54 7 81 l8 49 6 -45 c3 -25 7 -35 7 -22z m-926 5 c62 -65 51
-139 -24 -166 -16 -6 -18 3 -18 93 0 55 4 100 8 100 5 0 20 -12 34 -27z m922
-338 c15 -22 15 -29 5 -36 -17 -10 -72 70 -106 154 l-25 61 24 17 23 18 31
-94 c17 -51 39 -105 48 -120z m-139 155 c-3 -5 -2 -17 3 -27 6 -10 16 -31 23
-48 7 -16 26 -49 41 -71 15 -23 24 -44 21 -48 -4 -3 2 -6 13 -6 18 -1 18 -1
-1 -12 -11 -6 -22 -14 -25 -18 -3 -4 -16 -13 -29 -20 -19 -10 -25 -10 -33 1
-8 11 -9 10 -5 -3 10 -28 -5 -29 -30 0 -27 30 -93 138 -93 152 0 4 -6 11 -12
13 -8 3 -5 6 5 6 10 1 15 5 12 11 -3 6 1 7 10 4 10 -4 15 -2 13 6 -2 7 3 15
11 18 9 3 11 0 6 -9 -5 -8 -4 -11 1 -6 5 5 9 13 9 18 0 5 14 18 30 29 34 22
39 24 30 10z m-129 -132 c10 -23 39 -69 63 -102 41 -56 42 -60 25 -73 -10 -7
-21 -13 -25 -13 -17 0 -73 56 -116 117 -37 52 -43 67 -32 73 8 5 23 16 34 24
28 22 30 21 51 -26z m-370 -93 c-50 -85 -148 -124 -252 -100 -27 6 -55 15 -62
19 -17 10 -15 29 3 22 10 -4 15 1 15 15 0 19 4 20 49 14 71 -10 152 9 213 48
29 19 55 33 57 31 2 -2 -9 -24 -23 -49z m283 24 l23 -31 -26 17 c-14 10 -26
24 -26 31 0 20 3 18 29 -17z m-140 -22 c-2 -1 -13 -9 -24 -17 -19 -14 -19 -14
-6 3 7 9 18 17 24 17 6 0 8 -1 6 -3z m-449 -26 c0 -6 -4 -13 -10 -16 -5 -3
-10 1 -10 9 0 9 5 16 10 16 6 0 10 -4 10 -9z m400 -5 c0 -2 -7 -9 -15 -16 -13
-11 -14 -10 -9 4 5 14 24 23 24 12z m-407 -155 c2 -10 1 -25 -4 -32 -6 -10 -9
-4 -9 19 0 36 5 42 13 13z m12 -81 c13 -22 143 -51 250 -57 l110 -6 78 -60
c42 -33 75 -62 72 -65 -7 -7 15 -32 28 -32 6 0 2 7 -9 15 -10 8 -14 14 -9 14
6 0 28 -16 50 -35 22 -20 34 -33 27 -29 -7 4 -32 9 -55 11 -125 13 -210 25
-232 33 -11 5 -38 14 -60 21 -60 18 -95 34 -95 43 0 5 5 5 12 1 6 -4 75 -8
153 -9 107 0 139 2 131 11 -7 7 -70 13 -166 16 -104 4 -170 11 -200 21 -24 9
-46 15 -48 13 -6 -7 73 -63 123 -88 87 -44 228 -75 420 -93 l70 -6 298 -225
c186 -140 302 -222 310 -217 7 4 89 60 183 125 l172 118 71 -6 c68 -7 71 -6
71 15 0 23 -10 27 -28 9 -8 -8 -15 -8 -26 1 -11 10 -20 10 -37 1 -41 -23 -9 9
52 51 33 22 64 37 69 34 11 -7 70 25 70 38 0 5 -14 -1 -31 -13 -16 -12 -32
-20 -34 -18 -3 2 29 27 70 56 l75 51 0 -40 c0 -22 -3 -38 -7 -36 -5 3 -9 -16
-10 -42 -1 -41 -33 -315 -37 -317 0 0 -57 -36 -126 -81 -69 -44 -140 -88 -157
-97 -48 -24 -40 -27 20 -9 151 46 242 69 246 61 1 -5 0 -24 -3 -43 -6 -29 -12
-35 -39 -40 -37 -6 -681 -75 -701 -75 -17 0 -336 257 -341 274 -2 6 -10 32
-18 59 -8 26 -12 47 -9 47 2 0 30 -14 61 -32 78 -45 147 -117 182 -191 l29
-62 -6 80 c-8 94 -22 139 -64 199 -79 116 -218 184 -554 271 -192 50 -347 116
-414 178 -20 18 -22 29 -20 94 1 51 5 73 14 73 7 0 16 -4 19 -10z m120 -270
c6 -4 52 -22 103 -40 74 -27 92 -36 87 -49 -4 -9 -6 -51 -6 -94 1 -58 -2 -79
-12 -83 -22 -8 -165 92 -234 164 -62 63 -63 65 -63 119 l0 54 58 -32 c31 -18
62 -35 67 -39z m80 -248 c44 -28 89 -57 100 -65 19 -14 20 -24 17 -256 l-3
-241 -179 0 -180 0 0 60 c0 39 6 73 17 93 12 22 18 58 19 120 1 49 5 91 8 94
3 4 6 -1 6 -10 0 -22 110 -74 198 -92 107 -22 102 -24 102 49 l0 64 -77 53
c-107 72 -192 136 -230 173 -31 28 -33 34 -33 98 l0 67 78 -78 c42 -42 113
-101 157 -129z m271 137 c266 -69 429 -159 483 -267 17 -35 35 -92 28 -92 -2
0 -28 24 -58 53 -29 29 -80 66 -112 82 -54 28 -59 29 -68 12 -6 -10 -15 -14
-22 -10 -7 4 -7 0 1 -10 23 -27 9 -39 -18 -14 -14 12 -45 38 -70 57 -25 18
-65 51 -90 73 -25 21 -49 41 -55 45 -16 11 -99 75 -109 84 -15 12 3 10 90 -13z
m72 -142 c19 -15 30 -27 25 -27 -4 0 -26 17 -49 38 -42 39 -32 34 24 -11z
m-557 5 c0 -21 2 -23 7 -9 6 15 13 12 54 -21 25 -21 89 -68 142 -103 96 -64
96 -64 96 -106 0 -42 -13 -63 -25 -42 -4 5 -13 8 -21 5 -7 -3 -16 -2 -18 3 -3
4 -18 8 -33 9 -65 2 -211 80 -196 106 4 7 2 8 -5 1 -7 -6 -13 -58 -15 -125 -1
-65 -4 -21 -5 103 -1 143 1 216 8 212 6 -3 10 -18 11 -33z m1880 -262 l-10
-25 -1 25 c-1 25 -1 25 -10 3 -6 -14 -18 -23 -30 -23 -12 0 -30 -5 -42 -11
-11 -6 -22 -8 -24 -6 -6 5 71 59 99 70 9 3 18 12 18 19 1 7 4 4 6 -7 2 -12 -1
-32 -6 -45z"/>
<path d="M2015 2447 c-6 -12 -28 -53 -49 -92 -21 -38 -30 -60 -19 -47 27 33
96 162 86 162 -4 0 -13 -10 -18 -23z"/>
<path d="M1881 2214 c0 -11 3 -14 6 -6 3 7 2 16 -1 19 -3 4 -6 -2 -5 -13z"/>
<path d="M1861 2189 c-1 -4 -8 -23 -16 -43 -8 -20 -13 -36 -10 -36 9 0 36 62
31 73 -2 7 -5 9 -5 6z"/>
<path d="M631 1924 c0 -11 3 -14 6 -6 3 7 2 16 -1 19 -3 4 -6 -2 -5 -13z"/>
<path d="M631 1884 c0 -11 3 -14 6 -6 3 7 2 16 -1 19 -3 4 -6 -2 -5 -13z"/>
<path d="M1395 1950 c-3 -6 1 -7 9 -4 18 7 21 14 7 14 -6 0 -13 -4 -16 -10z"/>
<path d="M2520 1180 c-14 -11 -20 -20 -15 -20 6 0 21 9 35 20 14 11 21 20 15
20 -5 0 -21 -9 -35 -20z"/>
<path d="M2523 1043 l-1 -58 9 49 c6 28 6 53 1 58 -5 5 -9 -16 -9 -49z"/>
<path d="M2354 1065 c-10 -8 -14 -14 -9 -14 6 0 19 6 29 14 11 8 15 15 10 15
-6 0 -19 -7 -30 -15z"/>
<path d="M2481 1024 c0 -11 3 -14 6 -6 3 7 2 16 -1 19 -3 4 -6 -2 -5 -13z"/>
<path d="M2388 992 c-126 -120 -135 -131 -176 -214 -23 -48 -42 -91 -42 -95 0
-4 21 13 48 39 60 58 155 121 237 158 39 18 65 35 65 45 0 8 -4 15 -10 15 -5
0 -10 -4 -10 -10 0 -5 -8 -10 -17 -11 -10 0 -31 -9 -48 -19 -16 -10 -54 -31
-82 -46 -29 -15 -53 -30 -53 -33 0 -4 -13 -15 -30 -24 -16 -10 -30 -15 -30
-12 0 19 74 110 118 146 29 24 52 51 52 61 0 21 0 21 -22 0z"/>
<path d="M881 764 c0 -11 3 -14 6 -6 3 7 2 16 -1 19 -3 4 -6 -2 -5 -13z"/>
<path d="M841 734 c0 -11 3 -14 6 -6 3 7 2 16 -1 19 -3 4 -6 -2 -5 -13z"/>
<path d="M1320 2537 c-124 -50 -226 -92 -227 -92 -5 -2 -14 -111 -28 -350 -9
-137 -18 -263 -21 -280 -6 -29 -6 -29 17 -13 18 13 430 283 447 293 1 1 11
116 22 256 11 140 22 260 25 267 2 6 1 11 -3 11 -4 -1 -108 -42 -232 -92z
m196 1 c-3 -18 -8 -82 -11 -141 -4 -60 -8 -117 -10 -128 -2 -11 -5 -48 -6 -84
l-2 -64 -141 -93 c-78 -50 -143 -95 -146 -98 -6 -6 -110 -70 -115 -70 -4 0 -2
36 10 177 10 116 21 148 50 137 7 -3 16 -1 20 5 3 6 10 11 16 11 12 0 12 -37
-1 -45 -13 -8 -1 -34 20 -45 13 -7 24 -5 42 10 l23 19 -37 -9 c-41 -9 -45 -5
-23 24 8 11 15 31 14 45 0 24 -1 24 -9 6 -8 -19 -9 -19 -9 2 -1 27 18 41 30
22 10 -14 7 -40 -6 -73 -7 -16 -6 -17 13 -7 12 7 22 18 22 26 0 9 10 15 24 15
15 0 33 11 45 26 49 62 7 211 -52 188 -23 -8 -47 -61 -47 -103 0 -31 -5 -43
-22 -52 -18 -10 -24 -8 -39 12 -32 42 -49 86 -49 128 0 41 1 42 57 67 32 13
64 26 73 28 22 4 72 24 95 38 24 14 145 57 162 57 9 1 11 -10 9 -31z m-186
-249 c0 -28 -5 -59 -10 -70 -12 -21 -40 -25 -58 -7 -18 18 -15 102 5 144 l18
36 22 -27 c17 -20 23 -39 23 -76z m-205 -19 c17 0 35 -31 35 -59 0 -34 -18
-24 -22 12 -4 47 -22 39 -26 -13 -2 -25 -8 -49 -14 -55 -7 -7 -9 7 -4 45 3 30
7 75 8 100 1 44 1 44 5 8 3 -24 9 -38 18 -38z"/>
<path d="M1271 2323 c-14 -50 -14 -76 2 -96 18 -24 38 -7 44 39 5 41 -10 94
-26 94 -6 0 -15 -17 -20 -37z m24 -42 c3 -5 1 -12 -5 -16 -5 -3 -10 1 -10 9 0
18 6 21 15 7z"/>
<path d="M2013 2263 c-169 -302 -180 -324 -162 -334 11 -6 193 -127 405 -269
211 -142 384 -256 384 -254 0 3 -9 17 -19 32 -11 15 -83 138 -160 274 l-141
247 -63 314 -63 313 -181 -323z m183 175 c-2 -10 0 -20 4 -23 7 -4 19 -67 25
-125 0 -9 4 -20 8 -27 4 -6 14 -49 22 -95 32 -172 48 -222 103 -318 30 -52 66
-115 79 -140 14 -25 41 -70 59 -101 19 -31 34 -60 34 -64 0 -4 9 -20 21 -36
l21 -30 -30 18 c-16 10 -75 50 -132 88 -56 39 -109 75 -118 80 -25 16 -416
277 -422 282 -4 4 39 93 50 103 3 3 14 21 24 40 17 34 54 103 110 205 16 28
35 56 44 63 9 6 13 12 9 12 -9 0 16 50 52 104 l25 38 8 -28 c5 -16 6 -37 4
-46z"/>
<path d="M1776 1832 c7 -7 349 -222 684 -430 30 -19 48 -28 40 -20 -17 17
-718 458 -728 458 -3 0 -2 -4 4 -8z"/>
<path d="M1428 1607 c-125 -95 -228 -175 -228 -179 0 -4 141 -128 313 -274
171 -147 324 -278 339 -292 l26 -24 90 68 c49 38 100 77 113 86 136 99 322
245 322 253 1 11 -722 535 -738 535 -5 -1 -112 -78 -237 -173z m294 127 l49
-37 -33 -27 c-36 -31 -32 -32 -100 29 -16 14 -28 21 -28 17 0 -5 19 -25 42
-45 l41 -37 -32 -23 c-32 -23 -33 -23 -54 -4 -43 37 -61 45 -23 9 38 -35 39
-37 20 -51 -27 -21 -37 -19 -69 15 -16 17 -33 30 -39 30 -5 0 9 -16 32 -36
l42 -35 -28 -24 c-26 -22 -28 -23 -47 -6 -40 34 -59 43 -27 12 17 -17 32 -33
32 -35 0 -3 -16 -17 -35 -32 l-35 -26 -52 42 -53 42 49 -46 49 -47 -22 -15
c-12 -9 -34 -27 -49 -41 -29 -27 -6 -13 41 24 16 13 32 23 35 23 4 0 29 -19
55 -41 l48 -42 -44 -41 c-44 -41 -24 -32 25 12 l26 24 106 -92 c59 -51 105
-94 104 -96 -2 -1 -20 -16 -42 -33 -21 -17 -35 -31 -30 -31 5 0 27 14 47 31
l38 32 33 -32 c17 -17 36 -31 41 -31 6 0 -7 15 -29 33 l-38 33 37 28 37 29 44
-45 45 -44 -81 -59 c-44 -32 -78 -61 -76 -63 3 -2 41 24 86 58 l81 61 57 -52
c31 -28 58 -54 59 -58 3 -8 -163 -131 -177 -131 -8 0 -571 475 -658 555 -11
10 27 44 210 183 122 94 227 171 232 171 4 1 31 -15 58 -35z m364 -262 c165
-119 301 -221 303 -225 1 -7 -260 -212 -307 -241 -8 -5 -50 26 -123 90 l-111
98 26 23 c15 13 30 23 34 23 4 -1 27 -18 51 -40 l44 -38 -29 -27 -29 -27 35
24 c19 13 49 35 67 48 l32 23 37 -29 c20 -16 48 -37 63 -48 l26 -18 -25 23
c-14 13 -41 37 -59 52 -32 27 -33 29 -15 43 35 27 53 34 59 25 3 -5 24 -24 48
-41 41 -31 41 -31 -6 12 l-48 44 45 32 c25 18 46 35 46 38 0 7 -19 -4 -61 -38
l-37 -28 -51 42 -52 42 25 18 c37 28 73 60 56 52 -8 -4 -31 -20 -51 -35 l-36
-28 -49 40 c-27 23 -53 45 -59 50 -6 6 4 21 25 40 19 16 26 26 14 20 -11 -5
-26 -17 -34 -25 -18 -23 -30 -20 -78 23 l-44 38 31 26 c17 14 31 29 31 32 0 4
-14 -5 -31 -19 -17 -14 -34 -26 -38 -26 -5 0 -29 17 -55 38 l-46 37 32 27 c18
15 35 27 38 27 3 0 140 -97 306 -217z m-332 115 l49 -43 -32 -23 c-36 -26 -30
-28 -103 37 l-26 24 26 24 c15 13 29 23 32 23 3 1 27 -19 54 -42z m-72 -53
c23 -20 44 -39 45 -43 1 -3 -8 -14 -21 -23 -22 -16 -24 -16 -72 27 -48 42 -48
44 -29 59 27 21 27 21 77 -20z m179 -35 l49 -41 -30 -25 -30 -25 -48 38 c-26
21 -49 39 -51 40 -3 3 51 53 58 54 2 0 25 -18 52 -41z m-229 -13 l47 -43 -30
-22 -29 -22 -51 43 -51 43 29 22 c15 13 30 23 33 23 3 -1 26 -20 52 -44z m-68
-51 l49 -44 -33 -28 c-19 -15 -37 -28 -40 -28 -3 0 -28 19 -55 43 l-49 43 35
29 c19 16 36 29 39 29 3 0 27 -20 54 -44z m286 -41 c58 -48 106 -90 108 -94 1
-4 -9 -15 -23 -24 -29 -19 -32 -17 -100 42 l-37 33 23 27 24 27 -28 -24 -27
-25 -28 25 c-49 45 -69 55 -24 13 l44 -41 -31 -23 -32 -22 -42 38 c-23 21 -42
41 -42 45 0 7 96 88 105 89 3 0 52 -39 110 -86z m126 10 c57 -49 58 -60 12
-85 -16 -8 -28 -3 -65 28 -26 21 -51 41 -57 46 -7 5 0 16 19 32 17 14 32 25
33 25 2 0 28 -21 58 -46z m-307 -63 l45 -38 -35 -33 -34 -33 38 28 c43 30 30
34 112 -35 17 -14 9 -3 -17 23 l-48 48 28 24 c30 26 24 28 99 -37 l42 -37 -63
-51 c-35 -27 -68 -50 -74 -50 -6 0 -56 39 -112 87 l-102 87 33 28 c18 16 36
28 39 28 3 0 25 -18 49 -39z m471 -77 c0 -1 -14 -12 -30 -24 l-30 -21 -50 38
c-27 21 -49 40 -49 43 -1 3 14 14 32 26 l32 21 47 -40 c27 -22 48 -41 48 -43z
m-115 -14 c24 -19 44 -37 45 -40 0 -3 -14 -14 -30 -23 l-30 -18 -45 37 c-25
20 -45 40 -45 44 0 10 43 40 52 37 5 -1 28 -18 53 -37z"/>
<path d="M2651 1194 c0 -11 3 -14 6 -6 3 7 2 16 -1 19 -3 4 -6 -2 -5 -13z"/>
</g>
</svg>
